<?xml version="1.0" encoding="utf-8"?>
<!-- Generator: Adobe Illustrator 20.1.0, SVG Export Plug-In . SVG Version: 6.00 Build 0)  -->
<!DOCTYPE svg PUBLIC "-//W3C//DTD SVG 1.1//EN" "http://www.w3.org/Graphics/SVG/1.1/DTD/svg11.dtd">
<svg version="1.1" id="Layer_1" xmlns="http://www.w3.org/2000/svg" xmlns:xlink="http://www.w3.org/1999/xlink" x="0px" y="0px"
	 viewBox="0 0 130 130" style="enable-background:new 0 0 130 130;" xml:space="preserve">
<style type="text/css">
	.st0{fill:#DC395F;}
</style>
<title>invision-logo</title>
<desc>Created with Sketch.</desc>
<g id="Design">
	<g id="main-page" transform="translate(-576.000000, -1578.000000)">
		<g id="skills2" transform="translate(55.000000, 1533.000000)">
			<g id="invision-logo" transform="translate(521.000000, 45.000000)">
				<path id="Shape" class="st0" d="M51.8,53.1c2.3,0,4.3-1.8,4.3-4.2c0-2.4-2-4.2-4.3-4.2c-2.3,0-4.3,1.8-4.3,4.2
					C47.6,51.3,49.5,53.1,51.8,53.1"/>
				<path id="Shape_1_" class="st0" d="M43,75.7c-0.3,1.1-0.4,2.2-0.4,3.2c0,3.7,2,6.2,6.3,6.2c3.6,0,6.4-2.1,8.5-5.5l-1.3,5.1h7.1
					l4-16.2c1-4.1,3-6.2,5.9-6.2c2.3,0,3.8,1.4,3.8,3.8c0,0.7-0.1,1.4-0.3,2.3l-2.1,7.4c-0.3,1.1-0.4,2.1-0.4,3.1
					c0,3.5,2.1,6.1,6.4,6.1c3.7,0,6.7-2.4,8.3-8.1l-2.8-1.1c-1.4,3.8-2.6,4.5-3.5,4.5c-0.9,0-1.5-0.6-1.5-1.9c0-0.6,0.1-1.2,0.3-2
					l2-7.2c0.5-1.7,0.7-3.2,0.7-4.6c0-5.4-3.3-8.2-7.3-8.2c-3.7,0-7.5,3.4-9.4,6.9l1.4-6.3H58.1l-1.5,5.6h5L58.5,75
					c-2.4,5.4-6.9,5.5-7.5,5.4c-0.9-0.2-1.5-0.6-1.5-1.8c0-0.7,0.1-1.7,0.4-2.9L54.7,57h-12l-1.5,5.6h5L43,75.7"/>
			</g>
		</g>
	</g>
</g>
</svg>
