<?xml version="1.0" encoding="utf-8"?>
<!-- Generator: Adobe Illustrator 20.1.0, SVG Export Plug-In . SVG Version: 6.00 Build 0)  -->
<!DOCTYPE svg PUBLIC "-//W3C//DTD SVG 1.1//EN" "http://www.w3.org/Graphics/SVG/1.1/DTD/svg11.dtd">
<svg version="1.1" id="Layer_1" xmlns="http://www.w3.org/2000/svg" xmlns:xlink="http://www.w3.org/1999/xlink" x="0px" y="0px"
	 viewBox="0 0 130 130" style="enable-background:new 0 0 130 130;" xml:space="preserve">
<style type="text/css">
	.st0{fill:#FFC700;}
</style>
<title>symbol</title>
<desc>Created with Sketch.</desc>
<g id="Design">
	<g id="main-page" transform="translate(-416.000000, -1576.000000)">
		<g id="skills2" transform="translate(55.000000, 1533.000000)">
			<path id="symbol" class="st0" d="M443.2,89.6l-8.4-3.6h-17.6l-8.4,3.6l-6.8,7.8l24,32l24-32L443.2,89.6z M447.1,97.7l-6.3,4.9
				l-5-7.3l7.1-3.4L447.1,97.7z M437.7,104h-23.4l4.8-8.5h13.8L437.7,104z M432.9,87.6l6.5,2.8l-6.5,3.1h-13.7l-6.5-3.1l6.4-2.8
				L432.9,87.6z M409.1,91.9l7.1,3.4l-5,7.3l-6.3-4.9L409.1,91.9z M407.4,102.5l4.1,3.2l9.7,15.8L407.4,102.5z M414.8,106.6h22.3
				L426,126.4L414.8,106.6z M430.8,121.4l9.7-15.8l4.1-3.2L430.8,121.4z"/>
		</g>
	</g>
</g>
</svg>
