<?xml version="1.0" encoding="utf-8"?>
<!-- Generator: Adobe Illustrator 18.0.0, SVG Export Plug-In . SVG Version: 6.00 Build 0)  -->
<!DOCTYPE svg PUBLIC "-//W3C//DTD SVG 1.1//EN" "http://www.w3.org/Graphics/SVG/1.1/DTD/svg11.dtd">
<svg version="1.1" xmlns="http://www.w3.org/2000/svg" xmlns:xlink="http://www.w3.org/1999/xlink" x="0px" y="0px"
	 viewBox="0 0 135 30" style="enable-background:new 0 0 135 30;" xml:space="preserve">
<style type="text/css">
	.st0{fill:#F0F0F0;}
	.st1{clip-path:url(#SVGID_2_);}
	.st2{display:none;clip-path:url(#SVGID_2_);}
	.st3{opacity:0.5;clip-path:url(#SVGID_2_);fill:#1D1D1B;}
	.st4{display:none;}
	.st5{fill:#58595D;}
	.st6{opacity:0.6;fill:url(#SVGID_3_);}
	.st7{fill:#FFFFFF;}
	.st8{fill:#2A2A2C;}
	.st9{fill:#D73534;}
	.st10{fill:none;stroke:#FFFFFF;stroke-miterlimit:10;}
	.st11{fill:#EDEDED;}
	.st12{fill:#BF835F;}
	.st13{fill:#2897D4;}
	.st14{fill:#36639D;}
	.st15{fill:#314D79;}
	.st16{opacity:0.4;fill:url(#SVGID_8_);}
	.st17{fill:none;stroke:#D73534;stroke-miterlimit:10;}
	.st18{opacity:0.2;fill:#58595D;}
	.st19{fill:#DADADA;}
	.st20{display:inline;}
	.st21{opacity:0.2;fill:#E50051;}
</style>
<g id="BG">
</g>
<g id="wirefrime">
	<g>
		<path class="st9" d="M133,0H45H2C0.895,0,0,0.896,0,2v26c0,1.105,0.895,2,2,2h43h88c1.104,0,2-0.895,2-2V2
			C135,0.896,134.104,0,133,0z M44,29H2c-0.552,0-1-0.449-1-1V2c0-0.551,0.448-1,1-1h42V29z M81.771,20.752h-7.715V9.548h1.824
			v9.508h5.891V20.752z M85.178,20.752h-1.825V9.548h1.825V20.752z M95.34,20.752l-3.377-4.85h-2.242v4.85h-1.824V9.548h1.824v4.674
			h2.209l3.122-4.674h2.064l-3.714,5.458l4.002,5.746H95.34z M106.556,20.752h-7.812V9.548h7.715v1.664h-5.891v3.058h5.411v1.664
			h-5.411v3.153h5.987V20.752z"/>
		<path class="st9" d="M27.116,6.957c1.083,0,2.12,0.462,2.92,1.301c0.807,0.846,1.285,1.976,1.345,3.181
			c0.078,1.558-0.449,2.639-0.976,3.491c-0.628,1.015-2.382,3.085-4.172,4.921c-2.578,2.645-3.511,3.104-3.732,3.182
			c-0.11-0.042-0.461-0.209-1.232-0.85c-0.692-0.574-1.552-1.384-2.488-2.34c-1.806-1.846-3.566-3.912-4.186-4.913
			c-0.746-1.204-1.038-2.248-0.976-3.49c0.061-1.205,0.539-2.335,1.346-3.181c0.8-0.839,1.837-1.301,2.92-1.301
			c1.765,0,3.016,1.013,3.687,1.556c0.087,0.07,0.186,0.15,0.265,0.211l0.651,0.499l0.669-0.475
			c0.096-0.068,0.224-0.167,0.355-0.268C24.245,7.911,25.474,6.957,27.116,6.957 M27.116,5.846c-2.022,0-3.495,1.142-4.286,1.756
			c-0.105,0.081-0.227,0.176-0.317,0.24c-0.071-0.055-0.162-0.128-0.24-0.191c-0.723-0.586-2.229-1.805-4.387-1.805
			c-1.39,0-2.712,0.584-3.724,1.645c-0.991,1.039-1.577,2.421-1.652,3.892c-0.073,1.465,0.278,2.739,1.141,4.132
			c0.668,1.079,2.451,3.178,4.337,5.105c0.963,0.984,1.852,1.82,2.572,2.418c1.192,0.989,1.668,1.116,1.95,1.116
			c0.718,0,2.239-1.187,4.521-3.528c1.869-1.917,3.645-4.019,4.321-5.112c0.58-0.94,1.234-2.258,1.14-4.131
			c-0.074-1.47-0.66-2.853-1.651-3.892C29.828,6.43,28.506,5.846,27.116,5.846L27.116,5.846z"/>
	</g>
</g>
<g id="Grids" class="st4">
</g>
</svg>
