<?xml version="1.0" encoding="utf-8"?>
<!-- Generator: Adobe Illustrator 18.0.0, SVG Export Plug-In . SVG Version: 6.00 Build 0)  -->
<!DOCTYPE svg PUBLIC "-//W3C//DTD SVG 1.1//EN" "http://www.w3.org/Graphics/SVG/1.1/DTD/svg11.dtd">
<svg version="1.1" xmlns="http://www.w3.org/2000/svg" xmlns:xlink="http://www.w3.org/1999/xlink" x="0px" y="0px"
	 viewBox="0 0 25 25" style="enable-background:new 0 0 25 25;" xml:space="preserve">
<style type="text/css">
	.st0{fill:#F0F0F0;}
	.st1{clip-path:url(#SVGID_2_);}
	.st2{display:none;clip-path:url(#SVGID_2_);}
	.st3{opacity:0.5;clip-path:url(#SVGID_2_);fill:#1D1D1B;}
	.st4{display:none;}
	.st5{fill:#58595D;}
	.st6{opacity:0.6;fill:url(#SVGID_3_);}
	.st7{fill:#FFFFFF;}
	.st8{fill:#2A2A2C;}
	.st9{fill:#D73534;}
	.st10{fill:none;stroke:#FFFFFF;stroke-miterlimit:10;}
	.st11{fill:#EDEDED;}
	.st12{fill:#BF835F;}
	.st13{fill:#2897D4;}
	.st14{fill:#36639D;}
	.st15{fill:#314D79;}
	.st16{opacity:0.4;fill:url(#SVGID_8_);}
	.st17{fill:none;stroke:#D73534;stroke-miterlimit:10;}
	.st18{opacity:0.2;fill:#58595D;}
	.st19{fill:#DADADA;}
	.st20{display:inline;}
	.st21{opacity:0.2;fill:#E50051;}
</style>
<g id="BG">
</g>
<g id="wirefrime">
	<path class="st8" d="M18.056,0H6.944h0C6.177,0,5.556,0.622,5.556,1.389v1.389h0v18.056h0v2.778C5.556,24.378,6.177,25,6.944,25h0
		h11.111c0.767,0,1.389-0.622,1.389-1.389v-2.778V2.778V1.389C19.444,0.622,18.823,0,18.056,0z M11.111,1.215h2.778
		c0.096,0,0.174,0.078,0.174,0.174s-0.078,0.174-0.174,0.174h-2.778c-0.096,0-0.174-0.078-0.174-0.174S11.015,1.215,11.111,1.215z
		 M9.938,1.263c0.069-0.062,0.18-0.062,0.243,0c0.035,0.035,0.049,0.077,0.049,0.125c0,0.048-0.014,0.09-0.049,0.125
		c-0.028,0.028-0.076,0.049-0.125,0.049c-0.042,0-0.091-0.021-0.118-0.049C9.903,1.479,9.882,1.437,9.882,1.389
		C9.882,1.347,9.903,1.299,9.938,1.263z M12.5,24.306c-0.767,0-1.389-0.622-1.389-1.389c0-0.767,0.622-1.389,1.389-1.389
		c0.767,0,1.389,0.622,1.389,1.389C13.889,23.684,13.267,24.306,12.5,24.306z M18.056,20.833H6.944V2.778h11.111V20.833z"/>
</g>
<g id="Grids" class="st4">
</g>
</svg>
