<?xml version="1.0" encoding="utf-8"?>
<!-- Generator: Adobe Illustrator 18.0.0, SVG Export Plug-In . SVG Version: 6.00 Build 0)  -->
<!DOCTYPE svg PUBLIC "-//W3C//DTD SVG 1.1//EN" "http://www.w3.org/Graphics/SVG/1.1/DTD/svg11.dtd">
<svg version="1.1" xmlns="http://www.w3.org/2000/svg" xmlns:xlink="http://www.w3.org/1999/xlink" x="0px" y="0px"
	 viewBox="0 0 16.219 30" style="enable-background:new 0 0 16.219 30;" xml:space="preserve">
<style type="text/css">
	.st0{fill:#F0F0F0;}
	.st1{clip-path:url(#SVGID_2_);}
	.st2{display:none;clip-path:url(#SVGID_2_);}
	.st3{opacity:0.5;clip-path:url(#SVGID_2_);fill:#1D1D1B;}
	.st4{display:none;}
	.st5{fill:#58595D;}
	.st6{opacity:0.6;fill:url(#SVGID_3_);}
	.st7{fill:#FFFFFF;}
	.st8{fill:#2A2A2C;}
	.st9{fill:#D73534;}
	.st10{fill:none;stroke:#FFFFFF;stroke-miterlimit:10;}
	.st11{fill:#EDEDED;}
	.st12{fill:#BF835F;}
	.st13{fill:#2897D4;}
	.st14{fill:#36639D;}
	.st15{fill:#314D79;}
	.st16{opacity:0.4;fill:url(#SVGID_8_);}
	.st17{fill:none;stroke:#D73534;stroke-miterlimit:10;}
	.st18{opacity:0.2;fill:#58595D;}
	.st19{fill:#DADADA;}
	.st20{display:inline;}
	.st21{opacity:0.2;fill:#E50051;}
</style>
<g id="BG">
</g>
<g id="wirefrime">
	<path class="st7" d="M15.61,0.006L11.719,0C7.348,0,4.523,2.898,4.523,7.383v3.405H0.611C0.274,10.788,0,11.061,0,11.399v4.933
		c0,0.337,0.274,0.611,0.611,0.611h3.912v12.446C4.523,29.726,4.797,30,5.136,30h5.102c0.338,0,0.612-0.274,0.612-0.611V16.943
		h4.573c0.338,0,0.611-0.274,0.611-0.611l0.003-4.933c0-0.162-0.066-0.317-0.18-0.433c-0.114-0.114-0.27-0.178-0.433-0.178H10.85
		V7.902c0-1.387,0.331-2.091,2.137-2.091l2.621-0.002c0.338,0,0.611-0.274,0.611-0.611V0.619C16.219,0.28,15.946,0.007,15.61,0.006
		L15.61,0.006z M15.61,0.006"/>
</g>
<g id="Grids" class="st4">
</g>
</svg>
