<?xml version="1.0" encoding="utf-8"?>
<!-- Generator: Adobe Illustrator 18.0.0, SVG Export Plug-In . SVG Version: 6.00 Build 0)  -->
<!DOCTYPE svg PUBLIC "-//W3C//DTD SVG 1.1//EN" "http://www.w3.org/Graphics/SVG/1.1/DTD/svg11.dtd">
<svg version="1.1" xmlns="http://www.w3.org/2000/svg" xmlns:xlink="http://www.w3.org/1999/xlink" x="0px" y="0px"
	 viewBox="0 0 30 30" style="enable-background:new 0 0 30 30;" xml:space="preserve">
<style type="text/css">
	.st0{fill:#F0F0F0;}
	.st1{clip-path:url(#SVGID_2_);}
	.st2{display:none;clip-path:url(#SVGID_2_);}
	.st3{opacity:0.5;clip-path:url(#SVGID_2_);fill:#1D1D1B;}
	.st4{display:none;}
	.st5{fill:#58595D;}
	.st6{opacity:0.6;fill:url(#SVGID_3_);}
	.st7{fill:#FFFFFF;}
	.st8{fill:#2A2A2C;}
	.st9{fill:#D73534;}
	.st10{fill:none;stroke:#FFFFFF;stroke-miterlimit:10;}
	.st11{fill:#EDEDED;}
	.st12{fill:#BF835F;}
	.st13{fill:#2897D4;}
	.st14{fill:#36639D;}
	.st15{fill:#314D79;}
	.st16{opacity:0.4;fill:url(#SVGID_8_);}
	.st17{fill:none;stroke:#D73534;stroke-miterlimit:10;}
	.st18{opacity:0.2;fill:#58595D;}
	.st19{fill:#DADADA;}
	.st20{display:inline;}
	.st21{opacity:0.2;fill:#E50051;}
</style>
<g id="BG">
</g>
<g id="wirefrime">
	<g>
		<path class="st7" d="M23.076,8.079c-0.636,0-1.155-0.519-1.155-1.155v-2.31c0-0.636,0.519-1.155,1.155-1.155h2.31
			c0.63,0,1.148,0.519,1.148,1.155v2.31c0,0.636-0.518,1.155-1.148,1.155H23.076z M23.076,8.079"/>
		<path class="st7" d="M14.996,10.603c-0.834,0-1.611,0.242-2.276,0.648c0.209-0.062,0.423-0.107,0.653-0.107
			c1.235,0,2.231,0.997,2.231,2.23c0,1.229-0.997,2.231-2.231,2.231c-1.233,0-2.23-0.997-2.23-2.231
			c0-0.231,0.045-0.444,0.107-0.653c-0.405,0.665-0.648,1.442-0.648,2.276c0,2.434,1.966,4.4,4.399,4.4c2.429,0,4.4-1.966,4.4-4.4
			C19.402,12.569,17.431,10.603,14.996,10.603L14.996,10.603z M14.996,10.603"/>
		<path class="st7" d="M14.996,8.079c3.826,0,6.924,3.098,6.924,6.917c0,3.826-3.098,6.924-6.924,6.924
			c-3.819,0-6.917-3.098-6.917-6.924C8.079,11.177,11.177,8.079,14.996,8.079 M14.996,5.769c-5.087,0-9.227,4.141-9.227,9.227
			c0,5.094,4.141,9.235,9.227,9.235c5.094,0,9.235-4.141,9.235-9.235C24.231,9.91,20.09,5.769,14.996,5.769L14.996,5.769z
			 M14.996,5.769"/>
		<path class="st7" d="M24.371,0H5.622C2.518,0,0,2.518,0,5.622v18.749C0,27.482,2.518,30,5.622,30h18.749
			C27.482,30,30,27.482,30,24.371V5.622C30,2.518,27.482,0,24.371,0L24.371,0z M27.69,10.383h-7.543
			c1.103,1.229,1.774,2.84,1.774,4.614c0,3.826-3.098,6.924-6.924,6.924c-3.819,0-6.917-3.098-6.917-6.924
			c0-1.774,0.669-3.385,1.768-4.614H2.31V5.622c0-1.824,1.487-3.311,3.311-3.311h18.749c1.832,0,3.319,1.487,3.319,3.311V10.383z
			 M27.69,10.383"/>
	</g>
</g>
<g id="Grids" class="st4">
</g>
</svg>
