<?xml version="1.0" encoding="utf-8"?>
<!-- Generator: Adobe Illustrator 18.0.0, SVG Export Plug-In . SVG Version: 6.00 Build 0)  -->
<!DOCTYPE svg PUBLIC "-//W3C//DTD SVG 1.1//EN" "http://www.w3.org/Graphics/SVG/1.1/DTD/svg11.dtd">
<svg version="1.1" xmlns="http://www.w3.org/2000/svg" xmlns:xlink="http://www.w3.org/1999/xlink" x="0px" y="0px"
	 viewBox="0 0 118.389 30" style="enable-background:new 0 0 118.389 30;" xml:space="preserve">
<style type="text/css">
	.st0{fill:#F0F0F0;}
	.st1{clip-path:url(#SVGID_2_);}
	.st2{display:none;clip-path:url(#SVGID_2_);}
	.st3{opacity:0.5;clip-path:url(#SVGID_2_);fill:#1D1D1B;}
	.st4{display:none;}
	.st5{fill:#58595D;}
	.st6{opacity:0.6;fill:url(#SVGID_3_);}
	.st7{fill:#FFFFFF;}
	.st8{fill:#2A2A2C;}
	.st9{fill:#D73534;}
	.st10{fill:none;stroke:#FFFFFF;stroke-miterlimit:10;}
	.st11{fill:#EDEDED;}
	.st12{fill:#BF835F;}
	.st13{fill:#2897D4;}
	.st14{fill:#36639D;}
	.st15{fill:#314D79;}
	.st16{opacity:0.4;fill:url(#SVGID_8_);}
	.st17{fill:none;stroke:#D73534;stroke-miterlimit:10;}
	.st18{opacity:0.2;fill:#58595D;}
	.st19{fill:#DADADA;}
	.st20{display:inline;}
	.st21{opacity:0.2;fill:#E50051;}
</style>
<g id="BG">
</g>
<g id="wirefrime">
	<g>
		<g>
			<polygon class="st7" points="0,4.437 4.627,4.437 4.627,21.292 13.195,21.292 13.195,25.563 0,25.563 			"/>
			<g>
				<path class="st7" d="M15.239,11.24h4.448v14.316h-4.448V11.24z M17.463,4.124c1.424,0,2.58,1.156,2.58,2.581
					c0,1.424-1.156,2.577-2.58,2.577c-1.423,0-2.579-1.153-2.579-2.577C14.884,5.28,16.04,4.124,17.463,4.124"/>
			</g>
			<polygon class="st7" points="38.281,4.437 42.725,4.437 42.725,17.062 47.764,11.234 53.215,11.234 47.382,17.862 53.092,25.563 
				47.504,25.563 42.783,18.486 42.725,18.486 42.725,25.563 38.281,25.563 			"/>
			<path class="st7" d="M22.147,11.244h4.27v1.956h0.059c0.592-1.125,2.045-2.312,4.21-2.312c4.507,0,5.337,2.965,5.337,6.82v7.85
				h-4.448v-6.961c0-1.66-0.031-3.794-2.314-3.794c-2.312,0-2.667,1.808-2.667,3.676v7.079h-4.448V11.244z"/>
			<path class="st7" d="M62.576,16.735c0.028-1.484-1.127-2.728-2.73-2.728c-1.956,0-3.022,1.335-3.141,2.728H62.576z
				 M66.343,23.078c-1.426,1.81-3.766,2.848-6.079,2.848c-4.448,0-8.006-2.965-8.006-7.563c0-4.594,3.558-7.56,8.006-7.56
				c4.153,0,6.759,2.966,6.759,7.56v1.393H56.705c0.353,1.691,1.632,2.788,3.35,2.788c1.455,0,2.431-0.741,3.173-1.749
				L66.343,23.078z"/>
			<path class="st7" d="M76.289,14.702c-2.223,0-3.559,1.484-3.559,3.647c0,2.166,1.336,3.648,3.559,3.648
				c2.226,0,3.559-1.482,3.559-3.648C79.848,16.186,78.515,14.702,76.289,14.702 M83.942,25.555h-4.094v-1.899H79.79
				c-0.685,1.039-2.403,2.254-4.419,2.254c-4.272,0-7.088-3.083-7.088-7.441c0-4.005,2.492-7.68,6.584-7.68
				c1.84,0,3.558,0.503,4.567,1.896h0.058V4.437h4.451V25.555z"/>
		</g>
		<path class="st7" d="M116.169,0H90.602c-1.221,0-2.213,0.968-2.213,2.163v25.672c0,1.195,0.992,2.165,2.213,2.165h25.567
			c1.224,0,2.219-0.97,2.219-2.165V2.163C118.389,0.969,117.393,0,116.169,0z M97.288,25.563h-4.453V11.247h4.453V25.563z
			 M95.063,9.291c-1.429,0-2.581-1.156-2.581-2.581c0-1.424,1.152-2.58,2.581-2.58c1.423,0,2.579,1.156,2.579,2.58
			C97.642,8.135,96.486,9.291,95.063,9.291z M113.953,25.563h-4.448v-6.962c0-1.66-0.029-3.796-2.313-3.796
			c-2.315,0-2.668,1.809-2.668,3.677v7.081h-4.444V11.247h4.265v1.957h0.061c0.593-1.125,2.046-2.312,4.211-2.312
			c4.504,0,5.337,2.964,5.337,6.82V25.563z"/>
	</g>
</g>
<g id="Grids" class="st4">
</g>
</svg>
