<?xml version="1.0" encoding="utf-8"?>
<!-- Generator: Adobe Illustrator 19.2.1, SVG Export Plug-In . SVG Version: 6.00 Build 0)  -->
<svg version="1.1" id="Layer_1" xmlns="http://www.w3.org/2000/svg" xmlns:xlink="http://www.w3.org/1999/xlink" x="0px" y="0px"
	 viewBox="0 0 378.4 378.4" style="enable-background:new 0 0 378.4 378.4;" xml:space="preserve">
<style type="text/css">
	.st0{fill:#2897D4;}
</style>
<g>
	<path class="st0" d="M231.5,184c-5.6-2.8-11.4-5.2-17.5-6.8c-11.2-2.9-22.4-5.6-33.6-8.4c-4.8-1.2-9.4-2.9-13.3-6
		c-5.9-4.7-6.1-11.8-0.6-16.9c3.1-2.9,6.9-4.6,10.9-5.6c4.6-1.1,9.2-1,13.9-1c10.2,0,17.4,4.7,22.4,13.3c1.6,2.7,3.3,5.3,5,7.9
		c3.7,5.4,9.1,6.4,15,5.2c5.6-1.1,9.3-4.9,10.9-10.4c1.3-4.5,0.3-9-1.6-13.2c-4-8.6-10.8-14.3-19-18.6c-10.8-5.5-22.4-7.1-34.3-6.8
		c-3,0-6-0.2-9,0c-12.9,1.1-25.4,3.8-35.8,12.2c-11.8,9.5-15.8,21.9-12.4,36.6c2.9,12.7,12,19.9,23.2,24.9
		c10.8,4.8,22.4,7.3,33.9,9.8c8,1.8,16.3,3.2,23.2,8.3c7.1,5.3,8.2,14.8,2.4,21.5c-2.2,2.5-4.8,4.4-7.8,5.7
		c-7.8,3.5-15.9,4.1-24.3,3.2c-10.3-1.1-17.5-6.3-22-15.5c-1.4-2.8-2.7-5.7-4.2-8.4c-2.4-4.3-5.9-7.5-11.1-8.1
		c-12.1-1.4-19.9,7.6-16.5,19.8c4.8,17.1,17,27.3,33.4,32.2c18.1,5.4,36.4,5.3,54.6,0c9.7-2.8,18.2-7.7,25-15.4
		C255.8,228.4,257.6,197.1,231.5,184z"/>
	<path class="st0" d="M189.2,0C84.7,0,0,84.7,0,189.2c0,104.5,84.7,189.2,189.2,189.2c104.5,0,189.2-84.7,189.2-189.2
		C378.4,84.7,293.7,0,189.2,0z M248.3,300.9c-12.3,2-24.6,0.6-36-5.2c-1.6-0.8-3.2-1.1-5-0.8c-60.3,9.4-115.6-33-122-93.4
		c-0.4-3.6-0.4-7.3-0.6-10.6c0.3-6,0.4-11.8,1.5-17.5c0.6-2.8,0.2-5-1.1-7.5c-12.1-23.6-7.4-52.6,11.5-71.2
		c19.2-18.8,48-23.2,71.6-10.6c2.9,1.6,5.6,2.1,8.9,1.6c55.8-7.6,108.4,31.5,117.6,87.3c2.1,12.7,2,25.2-0.5,37.8
		c-0.3,1.7-0.1,3.1,0.6,4.7C311,253.1,288.6,294.5,248.3,300.9z"/>
</g>
</svg>
