<?xml version="1.0" encoding="utf-8"?>
<!-- Generator: Adobe Illustrator 18.0.0, SVG Export Plug-In . SVG Version: 6.00 Build 0)  -->
<!DOCTYPE svg PUBLIC "-//W3C//DTD SVG 1.1//EN" "http://www.w3.org/Graphics/SVG/1.1/DTD/svg11.dtd">
<svg version="1.1" id="Layer_1" xmlns="http://www.w3.org/2000/svg" xmlns:xlink="http://www.w3.org/1999/xlink" x="0px" y="0px"
	 viewBox="0 0 378.375 378.374" style="enable-background:new 0 0 378.375 378.374;" xml:space="preserve">
<style type="text/css">
	.st0{fill-rule:evenodd;clip-rule:evenodd;fill:#FFFFFF;}
</style>
<g>
	<path class="st0" d="M231.484,183.981c-5.631-2.821-11.432-5.207-17.506-6.795c-11.157-2.919-22.385-5.562-33.558-8.414
		c-4.762-1.215-9.369-2.941-13.264-6.038c-5.912-4.701-6.126-11.771-0.583-16.911c3.108-2.881,6.858-4.587,10.949-5.578
		c4.562-1.102,9.194-0.952,13.85-0.97c10.202-0.034,17.385,4.748,22.422,13.323c1.586,2.7,3.279,5.343,5.037,7.938
		c3.691,5.447,9.15,6.377,15.016,5.185c5.631-1.144,9.344-4.94,10.861-10.392c1.251-4.486,0.322-8.986-1.62-13.199
		c-3.971-8.61-10.799-14.349-19.043-18.555c-10.775-5.495-22.395-7.074-34.322-6.751c-3.01,0-6.039-0.222-9.027,0.04
		c-12.921,1.123-25.401,3.84-35.772,12.242c-11.757,9.527-15.843,21.945-12.439,36.639c2.935,12.66,12.026,19.907,23.221,24.897
		c10.829,4.826,22.386,7.262,33.903,9.83c8.047,1.795,16.318,3.158,23.211,8.264c7.133,5.283,8.181,14.785,2.369,21.496
		c-2.17,2.506-4.828,4.383-7.836,5.744c-7.771,3.52-15.893,4.119-24.292,3.195c-10.266-1.125-17.482-6.324-21.964-15.518
		c-1.374-2.816-2.653-5.688-4.185-8.416c-2.445-4.348-5.875-7.5-11.091-8.113c-12.076-1.42-19.89,7.635-16.463,19.754
		c4.83,17.088,16.963,27.275,33.417,32.228c18.076,5.44,36.428,5.266,54.578,0.041c9.68-2.787,18.201-7.717,24.967-15.42
		C255.775,228.412,257.639,197.097,231.484,183.981z"/>
	<path class="st0" d="M189.187,0C84.704,0,0,84.7,0,189.187c0,104.484,84.703,189.187,189.187,189.187
		c104.482,0,189.188-84.703,189.188-189.187C378.375,84.7,293.67,0,189.187,0z M248.271,300.929
		c-12.327,1.967-24.559,0.566-35.953-5.176c-1.641-0.826-3.186-1.137-5.031-0.848c-60.285,9.428-115.645-32.971-121.964-93.41
		c-0.378-3.619-0.44-7.268-0.636-10.639c0.262-6.039,0.368-11.839,1.536-17.502c0.572-2.765,0.178-5.006-1.098-7.496
		c-12.107-23.62-7.353-52.625,11.545-71.183c19.188-18.845,48.048-23.176,71.647-10.573c2.936,1.566,5.643,2.079,8.917,1.639
		c55.837-7.55,108.384,31.548,117.564,87.317c2.082,12.652,1.992,25.242-0.547,37.796c-0.348,1.721-0.055,3.15,0.611,4.697
		C311.029,253.081,288.576,294.505,248.271,300.929z"/>
</g>
</svg>
