<?xml version="1.0" encoding="utf-8"?>
<!-- Generator: Adobe Illustrator 18.0.0, SVG Export Plug-In . SVG Version: 6.00 Build 0)  -->
<!DOCTYPE svg PUBLIC "-//W3C//DTD SVG 1.1//EN" "http://www.w3.org/Graphics/SVG/1.1/DTD/svg11.dtd">
<svg version="1.1" xmlns="http://www.w3.org/2000/svg" xmlns:xlink="http://www.w3.org/1999/xlink" x="0px" y="0px"
	 viewBox="0 0 17.009 30" style="enable-background:new 0 0 17.009 30;" xml:space="preserve">
<style type="text/css">
	.st0{fill:#F0F0F0;}
	.st1{clip-path:url(#SVGID_2_);}
	.st2{display:none;clip-path:url(#SVGID_2_);}
	.st3{opacity:0.5;clip-path:url(#SVGID_2_);fill:#1D1D1B;}
	.st4{display:none;}
	.st5{fill:#58595D;}
	.st6{opacity:0.6;fill:url(#SVGID_3_);}
	.st7{fill:#FFFFFF;}
	.st8{fill:#2A2A2C;}
	.st9{fill:#D73534;}
	.st10{fill:none;stroke:#FFFFFF;stroke-miterlimit:10;}
	.st11{fill:#EDEDED;}
	.st12{fill:#BF835F;}
	.st13{fill:#2897D4;}
	.st14{fill:#36639D;}
	.st15{fill:#314D79;}
	.st16{opacity:0.4;fill:url(#SVGID_8_);}
	.st17{fill:none;stroke:#D73534;stroke-miterlimit:10;}
	.st18{opacity:0.2;fill:#58595D;}
	.st19{fill:#DADADA;}
	.st20{display:inline;}
	.st21{opacity:0.2;fill:#E50051;}
</style>
<g id="BG">
</g>
<g id="wirefrime">
	<g>
		<path class="st7" d="M10.099,6.522V0H5.89C5.794,0.238,5.748,0.528,5.748,0.818C5.704,0.96,5.653,1.063,5.653,1.204
			C5.22,3.622,3.963,5.309,1.836,6.232C1.204,6.522,0.625,6.567,0,6.522v5.258h3.094c0.051,7.4,0.051,11.214,0.051,11.407v0.439
			c0.388,3.229,2.076,5.163,5.072,5.89C9.422,29.852,10.724,30,12.033,30c1.688-0.051,3.331-0.341,4.976-0.869v-6.187
			c-0.96,0.29-1.838,0.535-2.61,0.774c-1.496,0.437-2.752,0.147-3.772-0.818c-0.096-0.149-0.238-0.343-0.289-0.536
			c-0.142-0.772-0.233-1.592-0.233-2.364V11.78h6.708V6.522H10.099z M10.099,6.522"/>
	</g>
</g>
<g id="Grids" class="st4">
</g>
</svg>
