<?xml version="1.0" encoding="utf-8"?>
<!-- Generator: Adobe Illustrator 19.1.0, SVG Export Plug-In . SVG Version: 6.00 Build 0)  -->
<svg version="1.1" id="ЌЉ_x2264_г_x5F_1" xmlns="http://www.w3.org/2000/svg" xmlns:xlink="http://www.w3.org/1999/xlink"
	 x="0px" y="0px" viewBox="-234 250.4 97.2 94.9" style="enable-background:new -234 250.4 97.2 94.9;" xml:space="preserve">
<style type="text/css">
	.st0{fill:#9C9E9F;}
</style>
<g>
	<g>
		<path class="st0" d="M-234,250.4v94.9h97.2v-94.9H-234z M-144.5,337.8h-81.6v-79.7h81.5v79.7H-144.5z"/>
	</g>
</g>
<g>
	<path class="st0" d="M-207.6,305.9l-3.5,11.6h-7.7l13.2-41h9.6l13.3,41h-8l-3.7-11.6H-207.6z M-195.8,300.2l-3.2-10.1
		c-0.8-2.5-1.5-5.3-2.1-7.7h-0.1c-0.6,2.4-1.2,5.2-1.9,7.7l-3.2,10.1C-206.3,300.2-195.8,300.2-195.8,300.2z"/>
</g>
<g>
	<path class="st0" d="M-172.9,304.8c0.2,5.4,4.4,7.7,9.1,7.7c3.5,0,6-0.5,8.2-1.3l1.1,5.2c-2.6,1-6.1,1.9-10.4,1.9
		c-9.6,0-15.3-6-15.3-15c0-8.2,5-16,14.5-16c9.7,0,12.8,7.9,12.8,14.4c0,1.4-0.1,2.5-0.2,3.2h-19.8V304.8z M-159.8,299.5
		c0.1-2.7-1.2-7.2-6.2-7.2c-4.6,0-6.6,4.2-6.9,7.2H-159.8z"/>
</g>
</svg>
