<?xml version="1.0" encoding="utf-8"?>
<!-- Generator: Adobe Illustrator 19.1.0, SVG Export Plug-In . SVG Version: 6.00 Build 0)  -->
<svg version="1.1" id="Layer_1" xmlns="http://www.w3.org/2000/svg" xmlns:xlink="http://www.w3.org/1999/xlink" x="0px" y="0px"
	 viewBox="-83 16 400 564.3" style="enable-background:new -83 16 400 564.3;" xml:space="preserve">
<style type="text/css">
	.st0{fill:#9C9E9F;}
</style>
<g>
	<polygon class="st0" points="59,42 59,16 -3,16 -3,92 59,92 59,66 23,66 23,42 	"/>
	<polygon class="st0" points="147,16 85,16 85,42.7 110.9,66 85,66 85,92 147,92 147,66.7 123.5,42 147,42 	"/>
	<polygon class="st0" points="237,16 175,16 175,42.7 199.9,66 175,66 175,92 237,92 237,66.7 212.5,42 237,42 	"/>
</g>
<polygon class="st0" points="242.1,207.1 117.3,260.6 117.3,310.7 237.8,257.1 "/>
<polygon class="st0" points="117.3,310.7 117.3,360.7 178.5,360.7 172.9,426.1 117.3,441.6 117.3,493.7 219.7,465.2 233.2,310.7 "/>
<path class="st0" d="M-83,126.7L-46.6,535l163.4,45.3l163.8-45.4L317,126.7H-83z M249.5,509.2l-132.2,36.4v-52l-0.4,0.1L14.2,465.3
	l-7-78.6h50.2l3.7,39.9l55.8,15l0.4-0.1v-80.8H4.7l-4.4-50l117-50.1v-3.5H-4.1l-4.5-50h125.4h0.5v-46.4h163.2L249.5,509.2z"/>
<polygon class="st0" points="117.3,207.1 117.3,256.5 117.3,257.1 237.8,257.1 242.1,207.1 "/>
</svg>
