<?xml version="1.0" encoding="utf-8"?>
<!-- Generator: Adobe Illustrator 19.1.0, SVG Export Plug-In . SVG Version: 6.00 Build 0)  -->
<svg version="1.1" id="Слой_1" xmlns="http://www.w3.org/2000/svg" xmlns:xlink="http://www.w3.org/1999/xlink" x="0px" y="0px"
	 viewBox="-155 170.3 256 256" style="enable-background:new -155 170.3 256 256;" xml:space="preserve">
<style type="text/css">
	.st0{fill:#9C9E9F;}
</style>
<g>
	<path class="st0" d="M-97.8,235.1c12.5,0,23-9.8,23-22.7c0-12.9-10.5-22.7-23-22.7s-23,9.8-23,22.7
		C-120.8,225.2-110.3,235.1-97.8,235.1"/>
	<path class="st0" d="M-145.5,356.6c-1.4,5.8-2,12-2,17c0,20,10.8,33.3,33.9,33.3c19.1,0,34.6-11.3,45.7-29.7l-6.8,27.3h37.9
		l21.7-86.9c5.4-22,15.9-33.4,31.8-33.4c12.5,0,20.3,7.8,20.3,20.7c0,3.7-0.3,7.8-1.7,12.2l-11.2,40c-1.7,5.8-2.4,11.5-2.4,16.9
		c0,19,11.2,32.8,34.5,32.8c20,0,35.9-12.9,44.7-43.7l-14.9-5.8c-7.5,20.6-13.9,24.4-19,24.4c-5.1,0-7.8-3.4-7.8-10.2
		c0-3,0.7-6.4,1.7-10.5l10.8-38.9c2.7-9.1,3.7-17.2,3.7-24.7c0-29.1-17.6-44.3-38.9-44.3c-20,0-40.3,18-50.5,37l7.4-34h-57.9
		l-8.1,30h27.1L-62,352.8c-13.1,29.1-37.2,29.6-40.2,28.9c-5-1.1-8.1-3-8.1-9.4c0-3.7,0.7-9.1,2.4-15.5L-82.5,256h-64.3l-8.1,30
		h26.8L-145.5,356.6"/>
</g>
</svg>
