<?xml version="1.0" encoding="utf-8"?>
<!-- Generator: Adobe Illustrator 19.1.0, SVG Export Plug-In . SVG Version: 6.00 Build 0)  -->
<svg version="1.1" id="ЌЉ_x2264_г_x5F_1" xmlns="http://www.w3.org/2000/svg" xmlns:xlink="http://www.w3.org/1999/xlink"
	 x="0px" y="0px" viewBox="-234 250.4 97.2 94.9" style="enable-background:new -234 250.4 97.2 94.9;" xml:space="preserve">
<style type="text/css">
	.st0{fill:#9C9E9F;}
</style>
<g>
	<g>
		<path class="st0" d="M-234,250.4v94.9h97.2v-94.9H-234z M-144.5,337.8h-81.6v-79.7h81.5v79.7H-144.5z"/>
	</g>
</g>
<g>
	<path class="st0" d="M-208.5,277.6c2.6-0.5,6.3-0.8,11.2-0.8c5.4,0,9.3,1.1,11.9,3.3c2.4,2,3.9,5.1,3.9,8.9c0,3.8-1.2,7-3.5,9.1
		c-2.9,2.9-7.5,4.3-12.7,4.3c-1.4,0-2.6-0.1-3.6-0.2v15.1h-7.3v-39.7H-208.5z M-201.2,296.3c0.9,0.2,2.1,0.3,3.6,0.3
		c5.5,0,8.8-2.7,8.8-7.4c0-4.5-3.1-6.9-8.2-6.9c-2,0-3.5,0.2-4.2,0.4C-201.2,282.7-201.2,296.3-201.2,296.3z"/>
</g>
<g>
	<path class="st0" d="M-179.2,310.5c1.7,1,4.8,2.1,7.5,2.1c3.2,0,4.6-1.3,4.6-3.2c0-2-1.2-3-4.8-4.2c-5.7-2-8-5.1-8-8.5
		c0-5.1,4.2-9.1,11-9.1c3.2,0,6,0.8,7.7,1.7l-1.4,5.1c-1.3-0.7-3.6-1.7-6.1-1.7c-2.6,0-4.1,1.3-4.1,3c0,1.8,1.4,2.7,5.1,4.1
		c5.2,1.9,7.7,4.6,7.7,8.9c0,5.2-4.1,9.1-11.8,9.1c-3.5,0-6.7-0.9-8.8-2.1L-179.2,310.5z"/>
</g>
</svg>
