<?xml version="1.0" encoding="utf-8"?>
<!-- Generator: Adobe Illustrator 21.0.0, SVG Export Plug-In . SVG Version: 6.00 Build 0)  -->
<!DOCTYPE svg PUBLIC "-//W3C//DTD SVG 1.1//EN" "http://www.w3.org/Graphics/SVG/1.1/DTD/svg11.dtd">
<svg version="1.1" id="Layer_1" xmlns="http://www.w3.org/2000/svg" xmlns:xlink="http://www.w3.org/1999/xlink" x="0px" y="0px"
	 viewBox="0 0 32 32" style="enable-background:new 0 0 32 32;" xml:space="preserve">
<style type="text/css">
	.st0{fill:#EA4C89;}
</style>
<g>
	<path class="st0" d="M16,0C7.2,0,0,7.2,0,16s7.2,16,16,16s16-7.2,16-16S24.8,0,16,0z M26.5,7.7c1.7,2.2,2.8,4.9,2.9,7.9
		C25.8,15,22.7,15,20,15.4c-0.3-0.8-0.7-1.5-1-2.3C21.8,12,24.4,10.2,26.5,7.7z M24.7,5.8c-1.9,2.3-4.2,3.9-6.9,4.9
		C16,7.6,14.3,4.9,12.8,3c1-0.2,2.1-0.4,3.1-0.4C19.3,2.6,22.3,3.8,24.7,5.8z M10.3,3.9c1.4,1.8,3.2,4.4,4.9,7.7
		c-3.8,1-8,1.3-12.2,1.3C3.9,9,6.6,5.7,10.3,3.9z M2.6,16l0-0.4h0.1c4.8,0,9.5-0.3,13.7-1.6c0.3,0.6,0.6,1.3,0.9,2
		c-5.6,1.6-9.1,5.3-11.4,8.8C3.9,22.4,2.6,19.4,2.6,16z M7.9,26.6c2.3-3.4,5.4-6.8,10.5-8.2c1.2,3.1,2.2,6.4,2.7,9.9
		c-1.6,0.7-3.3,1-5.1,1C13,29.4,10.1,28.3,7.9,26.6z M23.5,27c-0.5-3.2-1.4-6.3-2.5-9.1c2.3-0.3,5-0.2,8.1,0.3
		C28.5,21.9,26.5,25,23.5,27z"/>
</g>
</svg>
