<?xml version="1.0" encoding="utf-8"?>
<!-- Generator: Adobe Illustrator 21.0.0, SVG Export Plug-In . SVG Version: 6.00 Build 0)  -->
<!DOCTYPE svg PUBLIC "-//W3C//DTD SVG 1.1//EN" "http://www.w3.org/Graphics/SVG/1.1/DTD/svg11.dtd">
<svg version="1.1" id="Layer_1" xmlns="http://www.w3.org/2000/svg" xmlns:xlink="http://www.w3.org/1999/xlink" x="0px" y="0px"
	 viewBox="0 0 32 32" style="enable-background:new 0 0 32 32;" xml:space="preserve">
<style type="text/css">
	.st0{fill:#00FD8D;}
	.st1{fill:#00E470;}
	.st2{fill:#00C967;}
	.st3{fill:#00AD6C;}
</style>
<g>
	<path class="st0" d="M31.2,29.5l-9.9-4.7L21.3,3.3c0-0.5,0.5-0.8,1-0.6l9.3,4.5C31.9,7.3,32,7.5,32,7.8V29
		C32,29.4,31.6,29.7,31.2,29.5z"/>
	<path class="st1" d="M21.4,24.8l-10.7-5.1L21,2.7c0.2-0.3,0.6-0.4,0.9-0.3L31.3,7c0.4,0.2,0.5,0.6,0.3,1L21.4,24.8z"/>
	<path class="st2" d="M21.4,24.8l-10.7-5.1L0.9,3.7C0.7,3.3,1.1,2.8,1.6,3l9.1,4.4L21.4,24.8z"/>
	<path class="st3" d="M9.9,29.5l-9.6-4.6C0.1,24.8,0,24.6,0,24.4V3.1c0-0.4,0.4-0.6,0.7-0.5l10,4.8V29C10.7,29.4,10.3,29.7,9.9,29.5
		z"/>
</g>
</svg>
