<?xml version="1.0" encoding="utf-8"?>
<!-- Generator: Adobe Illustrator 21.0.0, SVG Export Plug-In . SVG Version: 6.00 Build 0)  -->
<!DOCTYPE svg PUBLIC "-//W3C//DTD SVG 1.1//EN" "http://www.w3.org/Graphics/SVG/1.1/DTD/svg11.dtd">
<svg version="1.1" id="Capa_1" xmlns="http://www.w3.org/2000/svg" xmlns:xlink="http://www.w3.org/1999/xlink" x="0px" y="0px"
	 viewBox="0 0 32 32" style="enable-background:new 0 0 32 32;" xml:space="preserve">
<style type="text/css">
	.st0{fill:#62B4F3;}
</style>
<g>
	<path id="Behance" class="st0" d="M28.9,8.9h-8v-2h8L28.9,8.9C28.9,8.9,28.9,8.9,28.9,8.9z M15.5,17c0.5,0.8,0.8,1.8,0.8,2.9
		c0,1.2-0.3,2.2-0.9,3.2c-0.4,0.6-0.8,1.1-1.4,1.6c-0.6,0.5-1.4,0.8-2.2,1C10.9,25.9,10,26,9,26H0V6h9.6c2.4,0,4.1,0.7,5.2,2.1
		c0.6,0.8,0.9,1.9,0.9,3c0,1.2-0.3,2.2-0.9,2.9c-0.3,0.4-0.8,0.8-1.5,1.1C14.3,15.6,15,16.2,15.5,17z M4.6,13.9h4.2
		c0.9,0,1.6-0.2,2.1-0.5c0.5-0.3,0.8-0.9,0.8-1.8c0-0.9-0.4-1.5-1.1-1.8C10,9.6,9.3,9.5,8.3,9.5H4.6V13.9z M12.1,19.7
		c0-1-0.4-1.7-1.3-2.1c-0.5-0.2-1.1-0.3-2-0.3H4.6v5.3h4.2c0.9,0,1.5-0.1,2-0.3C11.7,21.7,12.1,20.9,12.1,19.7z M31.9,16.4
		C32,17.1,32,18,32,19.3H21.6c0.1,1.4,0.6,2.4,1.5,3c0.6,0.4,1.3,0.5,2.1,0.5c0.8,0,1.5-0.2,2.1-0.7c0.3-0.2,0.5-0.6,0.8-1h3.8
		c-0.1,0.8-0.6,1.7-1.4,2.6c-1.3,1.4-3.1,2.1-5.4,2.1c-1.9,0-3.6-0.6-5-1.8c-1.4-1.2-2.2-3.1-2.2-5.7c0-2.5,0.7-4.4,2-5.7
		c1.3-1.3,3-2,5.1-2c1.2,0,2.4,0.2,3.4,0.7c1,0.4,1.8,1.1,2.5,2.1C31.3,14.3,31.7,15.3,31.9,16.4z M28.1,16.8c-0.1-1-0.4-1.7-1-2.3
		c-0.6-0.5-1.3-0.8-2.2-0.8c-1,0-1.7,0.3-2.2,0.8c-0.5,0.5-0.9,1.3-1,2.2L28.1,16.8L28.1,16.8z"/>
</g>
</svg>
