<?xml version="1.0" encoding="utf-8"?>
<!-- Generator: Adobe Illustrator 19.1.0, SVG Export Plug-In . SVG Version: 6.00 Build 0)  -->
<svg version="1.1" id="ЌЉ_x2264_г_x5F_1" xmlns="http://www.w3.org/2000/svg" xmlns:xlink="http://www.w3.org/1999/xlink"
	 x="0px" y="0px" viewBox="-234 250.4 97.2 94.9" style="enable-background:new -234 250.4 97.2 94.9;" xml:space="preserve">
<style type="text/css">
	.st0{fill:#9C9E9F;}
</style>
<g>
	<g>
		<path class="st0" d="M-234,250.4v94.9h97.2v-94.9H-234z M-144.5,337.8h-81.6v-79.7h81.5v79.7H-144.5z"/>
	</g>
</g>
<g>
	<path class="st0" d="M-198.6,305.9l-3.4,11.4h-7.6l12.9-40.2h9.4l13.1,40.2h-7.9l-3.6-11.4H-198.6z M-187.1,300.4l-3.2-9.9
		c-0.8-2.4-1.4-5.2-2-7.5h-0.1c-0.6,2.3-1.2,5.1-1.9,7.5l-3.1,9.9H-187.1z"/>
</g>
<path class="st0" d="M-163.7,280.2c0,2.2-1.6,3.9-4.2,3.9c-2.4,0-4.1-1.7-4.1-3.9c0-2.3,1.7-4,4.1-4
	C-165.3,276.2-163.7,277.9-163.7,280.2z M-171.5,317.3v-29h7.4v29H-171.5z"/>
</svg>
