<?xml version="1.0" encoding="utf-8"?>
<!-- Generator: Adobe Illustrator 19.1.0, SVG Export Plug-In . SVG Version: 6.00 Build 0)  -->
<svg version="1.1" id="ЌЉ_x2264_г_x5F_1" xmlns="http://www.w3.org/2000/svg" xmlns:xlink="http://www.w3.org/1999/xlink"
	 x="0px" y="0px" viewBox="-138 93.7 290.2 409.6" style="enable-background:new -138 93.7 290.2 409.6;" xml:space="preserve">
<style type="text/css">
	.st0{fill:#9C9E9F;}
</style>
<g>
	<polygon class="st0" points="-41,308.3 7.1,308.3 7.1,271.1 -44.3,271.1 	"/>
	<path class="st0" d="M-138,174.2l26.4,296.2L6.9,503.3l118.9-32.9l26.4-296.2H-138z M7.1,440.4H6.9l-74.4-20.7l-5.1-57h16.8h19.7
		l2.6,29l40.4,10.9h0.2V440.4z M103.1,451.5l-96,26.6V344.6v-0.1h-81.3l-8.9-100.1l-0.9-9.7H7h0.1v-36.3h118.6L103.1,451.5z"/>
</g>
<path class="st0" d="M-111,93.7h18.5v18.2h16.9V93.7h18.5v55.2h-18.6v-18.5h-16.8v18.5H-111V93.7L-111,93.7z"/>
<path class="st0" d="M-32.9,112h-16.3V93.7h51V112h-16.3v36.9H-33L-32.9,112L-32.9,112z"/>
<path class="st0" d="M9.9,93.7h19.2L41,113.1l11.8-19.4h19.3v55.2H53.7v-27.3L41,141.2h-0.3L28,121.6V149H9.9V93.7L9.9,93.7z"/>
<path class="st0" d="M81.3,93.7h18.5v37h26V149H81.4L81.3,93.7L81.3,93.7z"/>
<path class="st0" d="M91.4,308.3h-9.8H7v36.3h44.7l-4.2,47.1L7,402.7v37.8l74.5-20.6l0.5-6.1l8.5-95.6L91.4,308.3z"/>
<path class="st0" d="M98,234.7H7v22.6V271v0.1h87.6l0,0h0.1l0.7-8.2l1.7-18.4L98,234.7z"/>
</svg>
