<?xml version="1.0" encoding="utf-8"?>
<!-- Generator: Adobe Illustrator 19.1.0, SVG Export Plug-In . SVG Version: 6.00 Build 0)  -->
<svg version="1.1" id="ЌЉ_x2264_г_x5F_1" xmlns="http://www.w3.org/2000/svg" xmlns:xlink="http://www.w3.org/1999/xlink"
	 x="0px" y="0px" viewBox="-234 250.4 97.2 94.9" style="enable-background:new -234 250.4 97.2 94.9;" xml:space="preserve">
<style type="text/css">
	.st0{fill:#9C9E9F;}
</style>
<g>
	<g>
		<path class="st0" d="M-234,250.4v94.9h97.2v-94.9H-234z M-144.5,337.8h-81.6v-79.7h81.5v79.7H-144.5z"/>
	</g>
</g>
<g>
	<g>
		<path class="st0" d="M-197.9,277v40.2h-7.3V277H-197.9z"/>
	</g>
</g>
<g>
	<path class="st0" d="M-166,274.9v34.2c0,3,0.1,6.2,0.2,8.2h-6l-0.2-4.7h-0.1c-1.6,3.2-4.8,5.2-8.7,5.2c-6.3,0-11.3-5.9-11.3-14.8
		c-0.1-9.7,5.5-15.5,11.9-15.5c3.7,0,6.3,1.7,7.5,3.8h0.1v-16.4H-166z M-172.7,300.3c0-0.6-0.1-1.3-0.2-1.9
		c-0.6-2.9-2.7-5.2-5.8-5.2c-4.3,0-6.7,4.2-6.7,9.6c0,5.3,2.4,9.2,6.7,9.2c2.7,0,5.1-2,5.8-5.2c0.2-0.7,0.2-1.4,0.2-2.1V300.3z"/>
</g>
</svg>
