<?xml version="1.0" encoding="utf-8"?>
<!-- Generator: Adobe Illustrator 19.2.1, SVG Export Plug-In . SVG Version: 6.00 Build 0)  -->
<svg version="1.1" id="ЌЉ_x2264_г_x5F_1" xmlns="http://www.w3.org/2000/svg" xmlns:xlink="http://www.w3.org/1999/xlink"
	 x="0px" y="0px" viewBox="0 0 97.2 94.9" style="enable-background:new 0 0 97.2 94.9;" xml:space="preserve">
<style type="text/css">
	.st0{fill:#9C9E9F;}
</style>
<path class="st0" d="M0,0v94.9h97.2V0H0z M57.5,71.2c0,10.1-4.8,13.7-12.6,13.7c-1.9,0-4.3-0.3-5.9-0.8l0.9-6.5
	c1.1,0.4,2.5,0.6,4.1,0.6c3.4,0,5.5-1.5,5.5-7V48.8h8V71.2z M72.9,84.8c-4.1,0-8.1-1.1-10.1-2.2l1.6-6.6c2.1,1.1,5.5,2.2,8.9,2.2
	c3.7,0,5.6-1.5,5.6-3.8c0-2.2-1.7-3.5-6-5c-5.9-2.1-9.8-5.4-9.8-10.5c0-6.1,5.1-10.6,13.4-10.6c4.1,0,7,0.8,9.1,1.8L84,56.5
	c-1.4-0.7-4-1.7-7.4-1.7c-3.5,0-5.2,1.6-5.2,3.4c0,2.3,1.9,3.3,6.6,5c6.3,2.3,9.2,5.6,9.2,10.6C87.2,79.8,82.7,84.8,72.9,84.8z"/>
</svg>
