<?xml version="1.0" encoding="utf-8"?>
<!-- Generator: Adobe Illustrator 18.0.0, SVG Export Plug-In . SVG Version: 6.00 Build 0)  -->
<!DOCTYPE svg PUBLIC "-//W3C//DTD SVG 1.1//EN" "http://www.w3.org/Graphics/SVG/1.1/DTD/svg11.dtd">
<svg version="1.1" xmlns="http://www.w3.org/2000/svg" xmlns:xlink="http://www.w3.org/1999/xlink" x="0px" y="0px"
	 viewBox="0 0 25 25" style="enable-background:new 0 0 25 25;" xml:space="preserve">
<style type="text/css">
	.st0{fill:#F0F0F0;}
	.st1{clip-path:url(#SVGID_2_);}
	.st2{display:none;clip-path:url(#SVGID_2_);}
	.st3{opacity:0.5;clip-path:url(#SVGID_2_);fill:#1D1D1B;}
	.st4{display:none;}
	.st5{fill:#58595D;}
	.st6{opacity:0.6;fill:url(#SVGID_3_);}
	.st7{fill:#FFFFFF;}
	.st8{fill:#2A2A2C;}
	.st9{fill:#D73534;}
	.st10{fill:none;stroke:#FFFFFF;stroke-miterlimit:10;}
	.st11{fill:#EDEDED;}
	.st12{fill:#BF835F;}
	.st13{fill:#2897D4;}
	.st14{fill:#36639D;}
	.st15{fill:#314D79;}
	.st16{opacity:0.4;fill:url(#SVGID_8_);}
	.st17{fill:none;stroke:#D73534;stroke-miterlimit:10;}
	.st18{opacity:0.2;fill:#58595D;}
	.st19{fill:#DADADA;}
	.st20{display:inline;}
	.st21{opacity:0.2;fill:#E50051;}
</style>
<g id="BG">
</g>
<g id="wirefrime">
	<g>
		<path class="st8" d="M23.148,3.241H10.185c-1.023,0-1.852,0.829-1.852,1.852v0.463h1.389V5.093c0-0.255,0.208-0.463,0.463-0.463
			h12.963c0.255,0,0.463,0.208,0.463,0.463V12.5c0,0.255-0.208,0.463-0.463,0.463h-0.926h-1.389v1.389v0.351l-1.333-1.333
			l-0.407-0.407h-0.575h-0.463v1.389h0.463l3.704,3.704v-3.704h0.926c1.023,0,1.852-0.829,1.852-1.852V5.093
			C25,4.07,24.171,3.241,23.148,3.241z"/>
		<path class="st8" d="M15.278,6.944H1.389C0.622,6.944,0,7.566,0,8.333v8.333c0,0.767,0.622,1.389,1.389,1.389h8.796l3.704,3.704
			v-3.704h1.389c0.767,0,1.389-0.622,1.389-1.389V8.333C16.667,7.566,16.045,6.944,15.278,6.944z"/>
	</g>
</g>
<g id="Grids" class="st4">
</g>
</svg>
