<?xml version="1.0" encoding="utf-8"?>
<!-- Generator: Adobe Illustrator 18.0.0, SVG Export Plug-In . SVG Version: 6.00 Build 0)  -->
<!DOCTYPE svg PUBLIC "-//W3C//DTD SVG 1.1//EN" "http://www.w3.org/Graphics/SVG/1.1/DTD/svg11.dtd">
<svg version="1.1" xmlns="http://www.w3.org/2000/svg" xmlns:xlink="http://www.w3.org/1999/xlink" x="0px" y="0px"
	 viewBox="0 0 25 25" style="enable-background:new 0 0 25 25;" xml:space="preserve">
<style type="text/css">
	.st0{fill:#F0F0F0;}
	.st1{clip-path:url(#SVGID_2_);}
	.st2{display:none;clip-path:url(#SVGID_2_);}
	.st3{opacity:0.5;clip-path:url(#SVGID_2_);fill:#1D1D1B;}
	.st4{display:none;}
	.st5{fill:#58595D;}
	.st6{opacity:0.6;fill:url(#SVGID_3_);}
	.st7{fill:#FFFFFF;}
	.st8{fill:#2A2A2C;}
	.st9{fill:#D73534;}
	.st10{fill:none;stroke:#FFFFFF;stroke-miterlimit:10;}
	.st11{fill:#EDEDED;}
	.st12{fill:#BF835F;}
	.st13{fill:#2897D4;}
	.st14{fill:#36639D;}
	.st15{fill:#314D79;}
	.st16{opacity:0.4;fill:url(#SVGID_8_);}
	.st17{fill:none;stroke:#D73534;stroke-miterlimit:10;}
	.st18{opacity:0.2;fill:#58595D;}
	.st19{fill:#DADADA;}
	.st20{display:inline;}
	.st21{opacity:0.2;fill:#E50051;}
</style>
<g id="BG">
</g>
<g id="wirefrime">
	<g>
		<path class="st8" d="M6.587,17.698c-0.147,0-0.295-0.047-0.421-0.142l-5.893-4.504C0.101,12.92,0,12.716,0,12.5
			c0-0.216,0.101-0.42,0.273-0.552l5.893-4.504c0.306-0.231,0.741-0.174,0.974,0.13c0.233,0.305,0.175,0.741-0.13,0.974L1.838,12.5
			l5.171,3.952c0.304,0.233,0.363,0.669,0.13,0.974C7.002,17.605,6.796,17.698,6.587,17.698z"/>
		<path class="st8" d="M18.413,17.698c0.147,0,0.295-0.047,0.421-0.142l5.893-4.504C24.899,12.92,25,12.716,25,12.5
			c0-0.216-0.101-0.42-0.273-0.552l-5.893-4.504c-0.306-0.231-0.741-0.174-0.974,0.13c-0.233,0.305-0.175,0.741,0.13,0.974
			l5.171,3.952l-5.171,3.952c-0.304,0.233-0.363,0.669-0.13,0.974C17.998,17.605,18.204,17.698,18.413,17.698z"/>
		<path class="st8" d="M10.125,19.72c-0.079,0-0.159-0.014-0.238-0.042c-0.36-0.131-0.546-0.53-0.415-0.89l4.751-13.051
			c0.131-0.361,0.529-0.546,0.89-0.415c0.36,0.131,0.546,0.53,0.415,0.89l-4.751,13.051C10.675,19.545,10.408,19.72,10.125,19.72z"
			/>
	</g>
</g>
<g id="Grids" class="st4">
</g>
</svg>
