<?xml version="1.0" encoding="utf-8"?>
<!-- Generator: Adobe Illustrator 18.0.0, SVG Export Plug-In . SVG Version: 6.00 Build 0)  -->
<!DOCTYPE svg PUBLIC "-//W3C//DTD SVG 1.1//EN" "http://www.w3.org/Graphics/SVG/1.1/DTD/svg11.dtd">
<svg version="1.1" xmlns="http://www.w3.org/2000/svg" xmlns:xlink="http://www.w3.org/1999/xlink" x="0px" y="0px"
	 viewBox="0 0 25 25" style="enable-background:new 0 0 25 25;" xml:space="preserve">
<style type="text/css">
	.st0{fill:#F0F0F0;}
	.st1{clip-path:url(#SVGID_2_);}
	.st2{display:none;clip-path:url(#SVGID_2_);}
	.st3{opacity:0.5;clip-path:url(#SVGID_2_);fill:#1D1D1B;}
	.st4{display:none;}
	.st5{fill:#58595D;}
	.st6{opacity:0.6;fill:url(#SVGID_3_);}
	.st7{fill:#FFFFFF;}
	.st8{fill:#2A2A2C;}
	.st9{fill:#D73534;}
	.st10{fill:none;stroke:#FFFFFF;stroke-miterlimit:10;}
	.st11{fill:#EDEDED;}
	.st12{fill:#BF835F;}
	.st13{fill:#2897D4;}
	.st14{fill:#36639D;}
	.st15{fill:#314D79;}
	.st16{opacity:0.4;fill:url(#SVGID_8_);}
	.st17{fill:none;stroke:#D73534;stroke-miterlimit:10;}
	.st18{opacity:0.2;fill:#58595D;}
	.st19{fill:#DADADA;}
	.st20{display:inline;}
	.st21{opacity:0.2;fill:#E50051;}
</style>
<g id="BG">
</g>
<g id="wirefrime">
	<g>
		<g>
			<path class="st8" d="M23.611,2.083H1.389C0.622,2.083,0,2.705,0,3.472v11.806v2.083c0,0.767,0.622,1.389,1.389,1.389h22.222
				c0.288,0,0.555-0.087,0.777-0.237c0.148-0.1,0.275-0.227,0.375-0.375C24.913,17.916,25,17.649,25,17.361v-2.083V3.472
				C25,2.705,24.378,2.083,23.611,2.083z M1.389,15.278V3.472h22.222v11.806H1.389z"/>
		</g>
		<path class="st8" d="M16.667,21.528h-0.868l-0.521-2.083H9.722l-0.521,2.083H8.333c-0.384,0-0.694,0.311-0.694,0.694
			s0.311,0.694,0.694,0.694h8.333c0.384,0,0.694-0.311,0.694-0.694S17.05,21.528,16.667,21.528z"/>
	</g>
</g>
<g id="Grids" class="st4">
</g>
</svg>
